<svg id="Layer_1" data-name="Layer 1" xmlns="http://www.w3.org/2000/svg" viewBox="0 0 76.91 48"><defs><style>.cls-1{fill:#fff;}.cls-2,.cls-5{fill:#f6cf2e;}.cls-2,.cls-3{fill-rule:evenodd;}.cls-3,.cls-4{fill:#463f8d;}</style></defs><rect class="cls-1" width="76.91" height="48" rx="10.16"/><polygon class="cls-2" points="17.08 10.19 59.95 10.19 59.95 29.41 17.08 29.41 17.08 10.19 17.08 10.19"/><polygon class="cls-3" points="17.08 37.03 59.95 37.03 59.95 29.46 17.08 29.46 17.08 37.03 17.08 37.03"/><path class="cls-4" d="M30.33,25.32l.08-.37a.73.73,0,0,1-.31-.09.75.75,0,0,1-.26-.21.43.43,0,0,1-.13-.27L29,15a.77.77,0,0,0-.15-.43.79.79,0,0,0-.31-.26,1.07,1.07,0,0,0-.43-.09H23.27l-.1.38a.39.39,0,0,1,.23.07.77.77,0,0,1,.18.18.53.53,0,0,1,.08.23c0,.05,0,.1,0,.14a1,1,0,0,1,0,.1l-4.75,9.21-.06.16a.78.78,0,0,0,0,.14.48.48,0,0,0,.18.39.87.87,0,0,0,.5.15H23L23,25a.59.59,0,0,1-.22-.05.7.7,0,0,1-.16-.13.27.27,0,0,1-.07-.18.34.34,0,0,1,0-.09.5.5,0,0,1,0-.12l.66-1.32h1.88l.14,1.64a.66.66,0,0,0,.24.49,1.12,1.12,0,0,0,.62.13ZM25,19.08l.13,1.81h-.92L25,19.08Z"/><path class="cls-1" d="M26.13,25.67a1.38,1.38,0,0,1-.79-.19.92.92,0,0,1-.39-.74l-.12-1.33H23.51L23,24.52v0h0l.06,0a.35.35,0,0,1,.35.43l-.08.37a.35.35,0,0,1-.35.28h-3.5a1.09,1.09,0,0,1-.72-.23.86.86,0,0,1-.32-.65,1.05,1.05,0,0,1,0-.24c0-.09.06-.16.09-.23l4.75-9.21V15l0,0a.2.2,0,0,0-.08-.08l0,0a.35.35,0,0,1-.28-.14.33.33,0,0,1-.06-.3l.09-.38a.37.37,0,0,1,.35-.26h4.81a1.35,1.35,0,0,1,.57.12,1,1,0,0,1,.46.38,1.09,1.09,0,0,1,.22.6l.74,9.43a.11.11,0,0,0,0,.07.55.55,0,0,0,.17.13.37.37,0,0,0,.15,0,.37.37,0,0,1,.27.13.41.41,0,0,1,.07.3l-.09.37a.34.34,0,0,1-.34.28h-4.2Zm-2.85-3h1.88a.35.35,0,0,1,.35.32l.15,1.65c0,.07,0,.18.08.22a.72.72,0,0,0,.42.07h3.47l-.07-.07a.79.79,0,0,1-.2-.48L28.61,15a.43.43,0,0,0-.25-.39.67.67,0,0,0-.28-.06H23.82l.06.08A.74.74,0,0,1,24,15a.75.75,0,0,1,0,.23.64.64,0,0,1-.06.18l-4.75,9.21a.63.63,0,0,1,0,.09v.05a.12.12,0,0,0,.05.11.44.44,0,0,0,.27.07h2.9a.69.69,0,0,1-.13-.36.76.76,0,0,1,0-.14.86.86,0,0,1,.06-.23L23,22.9A.35.35,0,0,1,23.28,22.7Zm1.88-1.45h-.92a.35.35,0,0,1-.3-.16.35.35,0,0,1,0-.34l.79-1.81a.36.36,0,0,1,.39-.21.37.37,0,0,1,.3.33l.12,1.81a.34.34,0,0,1-.09.27A.36.36,0,0,1,25.16,21.25Z"/><path class="cls-4" d="M36,19.83a.61.61,0,0,1,.27-.39,1.12,1.12,0,0,1,.62-.13h.7a1.82,1.82,0,0,0,.88-.19,1,1,0,0,0,.5-.62l.47-2H38a1.31,1.31,0,0,0-.52.09,1,1,0,0,0-.37.25,3.31,3.31,0,0,0-.3.39c-.09.16-.2.33-.31.51h-.2c0-.11.06-.21.08-.31a2.32,2.32,0,0,0,0-.24.54.54,0,0,0-.18-.43.93.93,0,0,0-.61-.16H32L32,17a.42.42,0,0,1,.21.06.55.55,0,0,1,.17.17.43.43,0,0,1,.07.25v.14a.4.4,0,0,1,0,.15l-1.58,6.8a1.77,1.77,0,0,0,0,.2c0,.06,0,.11,0,.14a.41.41,0,0,0,.14.31.64.64,0,0,0,.38.13h4l.09-.37a.37.37,0,0,1-.21-.08.49.49,0,0,1-.17-.18.45.45,0,0,1-.07-.25v-.13a.5.5,0,0,1,0-.12l1-4.36Z"/><path class="cls-1" d="M35.3,25.67h-4a.89.89,0,0,1-.61-.21.81.81,0,0,1-.27-.57,1.91,1.91,0,0,1,0-.2c0-.07,0-.14,0-.23L32,17.66h0s0-.06,0-.09v-.11a.14.14,0,0,0,0-.06L32,17.34l0,0a.34.34,0,0,1-.28-.13.35.35,0,0,1-.07-.3l.08-.37a.36.36,0,0,1,.35-.28h3.59a1.25,1.25,0,0,1,.83.24.75.75,0,0,1,.24.32,1.12,1.12,0,0,1,.17-.2,1.36,1.36,0,0,1,.49-.34,1.62,1.62,0,0,1,.66-.12h1.4a.34.34,0,0,1,.28.14.32.32,0,0,1,.07.3l-.47,2s0,0,0,0a1.4,1.4,0,0,1-.67.81,2.12,2.12,0,0,1-1,.24h-.72a.92.92,0,0,0-.43.07.25.25,0,0,0-.11.16h0l-1,4.36v.17a.08.08,0,0,0,0,.06.09.09,0,0,0,.06.07h0a.37.37,0,0,1,.28.14.37.37,0,0,1,.07.32l-.1.37A.35.35,0,0,1,35.3,25.67Zm-2.58-7.84-1.58,6.79a1.22,1.22,0,0,0,0,.17.34.34,0,0,0,0,.09.06.06,0,0,0,0,.05.29.29,0,0,0,.14,0h3.5l-.06-.08a1,1,0,0,1-.12-.42.71.71,0,0,1,0-.16.55.55,0,0,1,0-.18l1-4.37a.87.87,0,0,1,.42-.61,1.43,1.43,0,0,1,.81-.19h.7a1.38,1.38,0,0,0,.71-.15.7.7,0,0,0,.33-.4L39,16.86H38a1,1,0,0,0-.38.06.73.73,0,0,0-.26.17,3.52,3.52,0,0,0-.25.33c-.09.16-.19.33-.31.51a.35.35,0,0,1-.3.17h-.2A.34.34,0,0,1,36,18a.35.35,0,0,1-.06-.31,1.77,1.77,0,0,0,.06-.28.77.77,0,0,0,0-.18c0-.11,0-.14,0-.16s-.11-.08-.38-.08h-3l0,.06a.78.78,0,0,1,.13.43v.2S32.74,17.75,32.72,17.83Zm3.25,2Z"/><path class="cls-4" d="M43.91,22.65a.79.79,0,0,1-.69-.25.85.85,0,0,1-.08-.72L44,17.86a1.8,1.8,0,0,1,.19-.58.85.85,0,0,1,.37-.38,1.23,1.23,0,0,1,.65-.14H46.9a1.43,1.43,0,0,0,.64-.12.83.83,0,0,0,.34-.33,1.73,1.73,0,0,0,.18-.5c0-.15.09-.32.13-.52s.09-.39.14-.59.07-.38.09-.53H42.93a3.2,3.2,0,0,0-1.06.19,2.92,2.92,0,0,0-1,.57,3.62,3.62,0,0,0-.79,1,4.78,4.78,0,0,0-.52,1.38l-.89,3.9a9.3,9.3,0,0,0-.24,1.36,3.92,3.92,0,0,0,0,1.15,1.79,1.79,0,0,0,.43.87,2,2,0,0,0,.93.57,5.48,5.48,0,0,0,1.54.2H45a2.9,2.9,0,0,0,.94-.13,1.11,1.11,0,0,0,.51-.36,1.47,1.47,0,0,0,.23-.56l.47-2h-.37a.49.49,0,0,1-.18.23,1,1,0,0,1-.31.14,1.39,1.39,0,0,1-.33,0Z"/><path class="cls-1" d="M45,25.67H41.41a5.47,5.47,0,0,1-1.65-.21,2.47,2.47,0,0,1-1.09-.67,2.17,2.17,0,0,1-.51-1,4,4,0,0,1,0-1.26,9.91,9.91,0,0,1,.24-1.41l.89-3.88a5.44,5.44,0,0,1,.56-1.49,4.18,4.18,0,0,1,.87-1.06A3.72,3.72,0,0,1,41.75,14a3.66,3.66,0,0,1,1.18-.2h5.49a.36.36,0,0,1,.27.12.34.34,0,0,1,.08.29c0,.14-.05.31-.09.54s-.09.4-.14.6-.09.38-.13.52a1.86,1.86,0,0,1-.22.59,1.14,1.14,0,0,1-.49.48,1.83,1.83,0,0,1-.8.16H45.24a1,1,0,0,0-.48.09.57.57,0,0,0-.23.23,1.51,1.51,0,0,0-.15.48v0l-.88,3.82a.57.57,0,0,0,0,.43.66.66,0,0,0,.42.11H46a1.24,1.24,0,0,0,.23,0,1,1,0,0,0,.21-.1l0,0a.35.35,0,0,1,.34-.24h.37a.34.34,0,0,1,.28.13.37.37,0,0,1,.07.3l-.47,2a1.84,1.84,0,0,1-.29.69,1.43,1.43,0,0,1-.68.48A3.06,3.06,0,0,1,45,25.67ZM42.93,14.53a3,3,0,0,0-.94.16,2.83,2.83,0,0,0-.86.51,3.1,3.1,0,0,0-.71.87,4.75,4.75,0,0,0-.49,1.29l-.88,3.89a8.62,8.62,0,0,0-.23,1.31,3.22,3.22,0,0,0,0,1,1.4,1.4,0,0,0,.35.71,1.66,1.66,0,0,0,.77.47,4.66,4.66,0,0,0,1.43.18H45a2.42,2.42,0,0,0,.81-.11.72.72,0,0,0,.35-.23,1.13,1.13,0,0,0,.17-.42l.32-1.36a1.39,1.39,0,0,1-.26.1A1.42,1.42,0,0,1,46,23H43.91a1,1,0,0,1-1.12-1.41l.89-3.82a2.2,2.2,0,0,1,.22-.67,1.37,1.37,0,0,1,.51-.53,1.7,1.7,0,0,1,.83-.18H46.9a1,1,0,0,0,.47-.08.44.44,0,0,0,.2-.18,1.69,1.69,0,0,0,.15-.42l.13-.51c0-.19.08-.39.13-.59v-.09Z"/><path class="cls-4" d="M51.89,22.09a1.39,1.39,0,0,1,.17-.48.46.46,0,0,1,.23-.21.66.66,0,0,1,.27-.06h.38l-.34,1.47a.69.69,0,0,1-.15.31.44.44,0,0,1-.29.11h-.11a.34.34,0,0,1-.25-.07.29.29,0,0,1-.08-.23s0-.08,0-.13l0-.15.13-.56Zm4.16-5.49h-5.5L50.21,18a.75.75,0,0,0,0,.16.92.92,0,0,0,0,.16.49.49,0,0,0,.16.43,1,1,0,0,0,.58.14h2.15a.35.35,0,0,1,.32.11.43.43,0,0,1,0,.37.46.46,0,0,1-.18.3.65.65,0,0,1-.35.09H50.74a2.62,2.62,0,0,0-1.28.27,2.39,2.39,0,0,0-1,.89,5.84,5.84,0,0,0-.64,1.68l-.06.4-.06.4c0,.13,0,.24,0,.33a2.19,2.19,0,0,0,.21,1.06,1.15,1.15,0,0,0,.58.53,2.41,2.41,0,0,0,.89.14h.66a6,6,0,0,0,.81-.05,1.7,1.7,0,0,0,.55-.19,1.5,1.5,0,0,0,.4-.36,3.88,3.88,0,0,0,.37-.56h.2l0,.21a.82.82,0,0,0,0,.41.51.51,0,0,0,.23.31,1.14,1.14,0,0,0,.52.12h3.65l.08-.37a.76.76,0,0,1-.21,0,.43.43,0,0,1-.2-.11.31.31,0,0,1-.09-.24c0-.06,0-.11,0-.16s0-.11,0-.19l1.24-5.36c0-.07,0-.15,0-.24a2.64,2.64,0,0,0,0-.28,1.93,1.93,0,0,0,0-.23,1.57,1.57,0,0,0-.21-.83,1.37,1.37,0,0,0-.58-.51,2,2,0,0,0-.84-.17Z"/><path class="cls-1" d="M49.37,25.79a2.7,2.7,0,0,1-1-.17,1.42,1.42,0,0,1-.76-.69,2.62,2.62,0,0,1-.26-1.23,2.87,2.87,0,0,1,0-.38c0-.11,0-.25,0-.41l.07-.4v0a6,6,0,0,1,.68-1.79,2.74,2.74,0,0,1,1.1-1,3.18,3.18,0,0,1,1.44-.31h2.13a.28.28,0,0,0,.15,0,.19.19,0,0,0,0-.08v-.05H50.9a1.27,1.27,0,0,1-.8-.21.83.83,0,0,1-.3-.71,1.83,1.83,0,0,1,0-.21,1.12,1.12,0,0,1,0-.21l.34-1.36a.35.35,0,0,1,.35-.27h5.5a2.25,2.25,0,0,1,1,.21,1.63,1.63,0,0,1,.73.64,1.89,1.89,0,0,1,.27,1,2.53,2.53,0,0,1,0,.27c0,.08,0,.18,0,.28a2,2,0,0,1,0,.28L56.71,24.3a.55.55,0,0,0,0,.17.31.31,0,0,0,0,.1h0l.12,0a.35.35,0,0,1,.35.43l-.08.37a.35.35,0,0,1-.35.28H53.08a1.26,1.26,0,0,1-.72-.18.92.92,0,0,1-.32-.36,1.92,1.92,0,0,1-.44.37,2.11,2.11,0,0,1-.67.23,5.14,5.14,0,0,1-.87.06h-.69Zm-1.15-3.15-.07.39c0,.14,0,.27,0,.38a1.62,1.62,0,0,0,0,.29,1.91,1.91,0,0,0,.16.89.79.79,0,0,0,.4.37,1.91,1.91,0,0,0,.76.11h.66A3.71,3.71,0,0,0,50.8,25a1.27,1.27,0,0,0,.44-.14,1.54,1.54,0,0,0,.31-.27,4.71,4.71,0,0,0,.33-.52.35.35,0,0,1,.31-.18h.2a.39.39,0,0,1,.28.13.38.38,0,0,1,.06.31l0,.21a.43.43,0,0,0,0,.25.19.19,0,0,0,.08.09.55.55,0,0,0,.32.06h3a.86.86,0,0,1-.11-.38,1.79,1.79,0,0,1,0-.23c0-.05,0-.12,0-.2l1.24-5.37a1.3,1.3,0,0,0,0-.21l0-.25c0-.08,0-.14,0-.21a1.27,1.27,0,0,0-.17-.64,1,1,0,0,0-.42-.38,1.67,1.67,0,0,0-.69-.14H50.82l-.27,1.1v0a.25.25,0,0,0,0,.1.65.65,0,0,0,0,.11s0,.13,0,.15.07.06.35.06h2.15a.7.7,0,0,1,.59.23.76.76,0,0,1,.11.69.84.84,0,0,1-.33.51.94.94,0,0,1-.55.16H50.74a2.38,2.38,0,0,0-1.13.23,2,2,0,0,0-.81.77A5.09,5.09,0,0,0,48.22,22.64Zm8.45,1.94Zm0,0Zm-4.6-1a.69.69,0,0,1-.49-.16.63.63,0,0,1-.19-.5,1.09,1.09,0,0,1,0-.18.78.78,0,0,0,0-.16v0l.13-.56a1.55,1.55,0,0,1,.22-.59.91.91,0,0,1,.38-.35,1,1,0,0,1,.43-.08h.37a.35.35,0,0,1,.27.13.34.34,0,0,1,.07.3l-.34,1.47a.85.85,0,0,1-.24.47.72.72,0,0,1-.53.23Zm0-.71h.08s0,0,0,0,0,0,.06-.11l.23-1-.06,0a.22.22,0,0,0-.06.07,1.07,1.07,0,0,0-.12.36h0l-.12.55a.5.5,0,0,0,0,.12v0Zm-.19-.79Z"/><path class="cls-5" d="M21.85,34.42l-.34.61-.35-.16a1.24,1.24,0,0,1-.66.17,1.32,1.32,0,0,1-.79-.21.69.69,0,0,1-.3-.5,2.93,2.93,0,0,1,0-.49V31.52h.95v2.74c0,.13.08.2.23.2a.2.2,0,0,0,.15-.06.18.18,0,0,0,.07-.15A.22.22,0,0,0,20.6,34V31.52h.95v2.31c0,.21,0,.36,0,.46l.32.13Zm2.91-.76h-1V32.21c0-.12,0-.18-.13-.18s-.14.06-.14.18V35h-.95V32.66a3.45,3.45,0,0,1,0-.55.69.69,0,0,1,.28-.45,1.2,1.2,0,0,1,.74-.21,1.32,1.32,0,0,1,.79.21.72.72,0,0,1,.3.5,2.93,2.93,0,0,1,0,.49v1Zm3.44-1.45h-.31v1.62a3.45,3.45,0,0,1,0,.55.75.75,0,0,1-.28.45,1.22,1.22,0,0,1-.74.21,1.36,1.36,0,0,1-.8-.21.76.76,0,0,1-.3-.5c0-.11,0-.27,0-.49V31.52h1v2.76c0,.12,0,.18.13.18s.14-.06.14-.18V31.52H28.2v.69Zm3,.62H29.94v1.45c0,.12,0,.18.13.18s.14-.06.14-.18V33.22h.95v.61a3.45,3.45,0,0,1,0,.55.75.75,0,0,1-.28.45,1.22,1.22,0,0,1-.74.21,1.36,1.36,0,0,1-.8-.21.76.76,0,0,1-.3-.5c0-.11,0-.27,0-.49V31.52h1v.62H31.2v.69Zm3.23,1c0,.22,0,.38,0,.49a.76.76,0,0,1-.3.5,1.38,1.38,0,0,1-.8.21,1.22,1.22,0,0,1-.74-.21.71.71,0,0,1-.28-.45,3.63,3.63,0,0,1,0-.55V32.21h-.32v-.69h1.27v2.76c0,.12,0,.18.14.18s.13-.06.13-.18V32.83h1v1Zm3.13.31h-1v-1.3c0-.12,0-.18-.13-.18s-.14.06-.14.18V35h-1V31.52h1v.58l.14,0a1.17,1.17,0,0,1,.76.22.74.74,0,0,1,.29.5,2.93,2.93,0,0,1,0,.49v.86Zm3.43.27-.35.61-.34-.16a1.24,1.24,0,0,1-.66.17,1.36,1.36,0,0,1-.8-.21.76.76,0,0,1-.3-.5c0-.11,0-.27,0-.49V31.52h.94v2.74c0,.13.08.2.23.2a.25.25,0,0,0,.16-.06.18.18,0,0,0,.07-.15.22.22,0,0,0-.18-.24V31.52h.94v2.31c0,.21,0,.36,0,.46l.32.13Zm3-.58a3.19,3.19,0,0,1,0,.49.76.76,0,0,1-.3.5,1.36,1.36,0,0,1-.8.21,1.22,1.22,0,0,1-.74-.21.75.75,0,0,1-.28-.45,3.63,3.63,0,0,1,0-.55V32.21h-.31v-.69h1.26v2.76q0,.18.15.18c.08,0,.13-.06.13-.18V32.83H44v1Zm4.11.88H46.89V35h-1v-.26h-.31V34h.31V32.66a3.63,3.63,0,0,1,0-.55.69.69,0,0,1,.28-.45,1.2,1.2,0,0,1,.74-.21,1.33,1.33,0,0,1,.82.23.77.77,0,0,1,.3.63v.33a1,1,0,0,1-.27.72,1.11,1.11,0,0,1-.68.31.57.57,0,0,1-.27,0V34h1.25v.7Zm-1-1.93v-.58c0-.12,0-.18-.13-.18s-.14.06-.14.18v.58c0,.13,0,.2.12.2s.15-.07.15-.2Zm4.39,1.63L51.2,35l-.34-.16a1.24,1.24,0,0,1-.66.17,1.36,1.36,0,0,1-.8-.21.76.76,0,0,1-.3-.5c0-.11,0-.27,0-.49V31.52H50v2.74c0,.13.08.2.23.2a.25.25,0,0,0,.16-.06.18.18,0,0,0,.07-.15A.22.22,0,0,0,50.3,34V31.52h.94v2.31c0,.21,0,.36,0,.46l.32.13Zm2.9-.76h-1V32.21c0-.12,0-.18-.13-.18s-.14.06-.14.18V35h-.95V32.66a3.45,3.45,0,0,1,0-.55.73.73,0,0,1,.28-.45,1.22,1.22,0,0,1,.74-.21,1.36,1.36,0,0,1,.8.21.76.76,0,0,1,.3.5c0,.11,0,.27,0,.49v1Zm3.44.69h-.31V35h-.95V32.21c0-.12-.05-.18-.14-.18s-.13.06-.13.18v1.45h-1v-1c0-.22,0-.38,0-.49a.76.76,0,0,1,.3-.5,1.36,1.36,0,0,1,.8-.21,1.22,1.22,0,0,1,.74.21.73.73,0,0,1,.28.45,3.63,3.63,0,0,1,0,.55v1h.31v.69Z"/><path class="cls-1" d="M60,37.08H17v-27H60Zm-42.89-.15H59.86V10.23H17.12Z"/></svg>