<?xml version="1.0" encoding="utf-8"?>
<!-- Generator: Adobe Illustrator 21.1.0, SVG Export Plug-In . SVG Version: 6.00 Build 0)  -->
<svg version="1.1" id="Layer_1" xmlns="http://www.w3.org/2000/svg" xmlns:xlink="http://www.w3.org/1999/xlink" x="0px" y="0px"
	 viewBox="0 0 76.9 48" style="enable-background:new 0 0 76.9 48;" xml:space="preserve">
<style type="text/css">
	.st0{fill:#FFFFFF;}
	.st1{clip-path:url(#SVGID_3_);fill:url(#SVGID_4_);}
	.st2{fill-rule:evenodd;clip-rule:evenodd;fill:#333333;}
</style>
<path class="st0" d="M10.2,0h56.6c5.6,0,10.2,4.5,10.2,10.2v27.7c0,5.6-4.5,10.2-10.2,10.2H10.2C4.5,48,0,43.5,0,37.8V10.2
	C0,4.5,4.5,0,10.2,0z"/>
<g>
	<g>
		<g>
			<defs>
				<path id="SVGID_1_" d="M17.9,17.3c-0.2,0.3-0.6,0.4-0.9,0.2l-0.8-0.5c-1.7-1-3.7-1-5.5,0c-1.7,1-2.7,2.7-2.7,4.7v0.9
					c0,0.4-0.3,0.7-0.7,0.7c-0.4,0-0.7-0.3-0.7-0.7l0-0.9c0-2.5,1.2-4.6,3.4-5.8c2.2-1.2,4.7-1.2,6.9,0l0.8,0.5
					C17.9,16.6,18,17,17.9,17.3 M16.5,28.4c-0.2-0.3-0.6-0.4-0.9-0.2l-0.8,0.5c-0.9,0.5-1.9,0.5-2.7,0c-0.9-0.5-1.4-1.3-1.4-2.3
					l0-4.5c0-1,0.5-1.8,1.4-2.3c0.9-0.5,1.9-0.5,2.7,0l4,2.2c0.9,0.5,1.4,1.3,1.4,2.3c0,1-0.5,1.8-1.4,2.3l-0.8,0.5
					c-0.3,0.2-0.4,0.6-0.3,0.9c0.2,0.3,0.6,0.4,0.9,0.2l0.8-0.5c1.3-0.7,2.1-2,2.1-3.5c0-1.5-0.7-2.8-2.1-3.5l-4-2.2
					c-1.3-0.7-2.8-0.7-4.1,0c-1.3,0.7-2.1,2-2.1,3.5l0,4.5c0,1.5,0.7,2.8,2.1,3.5c1.3,0.7,2.8,0.7,4.1,0l0.8-0.5l0,0
					C16.6,29.1,16.7,28.7,16.5,28.4z M16.8,32.1c-2.2,1.2-4.7,1.2-6.9,0c-2.2-1.2-3.4-3.4-3.4-5.8v-0.9c0-0.4,0.3-0.7,0.7-0.7
					c0.4,0,0.7,0.3,0.7,0.7l0,0.9c0,2,1,3.7,2.7,4.7c1.7,1,3.7,1,5.5,0c1.3-0.7,2.6-1.5,4-2.2c1.7-1,2.7-2.7,2.7-4.7l0,0
					c0-2-1-3.7-2.7-4.7l-0.8-0.5c-0.3-0.2-0.4-0.6-0.3-0.9c0.2-0.3,0.6-0.4,0.9-0.2l0,0l0.8,0.5c2.2,1.2,3.4,3.4,3.4,5.8
					c0,2.5-1.2,4.6-3.4,5.8C19.4,30.6,18.1,31.3,16.8,32.1z M12,22.7c0,0.4,0.3,0.7,0.7,0.7c0.4,0,0.7-0.3,0.7-0.7l0,0l0-0.6
					c0-0.1,0-0.1,0.1-0.1c0.1,0,0.1,0,0.2,0l1.7,1l1.7,1c0.1,0,0.1,0.1,0.1,0.1c0,0.1,0,0.1-0.1,0.1l-1.7,1l-1.7,1
					c-0.1,0-0.1,0-0.2,0c-0.1,0-0.1-0.1-0.1-0.1v-0.6c0-0.4-0.3-0.7-0.7-0.7c-0.4,0-0.7,0.3-0.7,0.7l0,0.9c0,0.5,0.3,0.9,0.7,1.2
					c0.4,0.2,0.9,0.2,1.4,0l4-2.2c0.4-0.2,0.7-0.7,0.7-1.2c0-0.5-0.2-0.9-0.7-1.2l-4-2.2c-0.4-0.2-0.9-0.2-1.4,0
					c-0.4,0.2-0.7,0.7-0.7,1.2V22.7z"/>
			</defs>
			<linearGradient id="SVGID_2_" gradientUnits="userSpaceOnUse" x1="6.5" y1="24" x2="24.1931" y2="24">
				<stop  offset="0" style="stop-color:#F1692A"/>
				<stop  offset="1" style="stop-color:#F7941D"/>
			</linearGradient>
			<use xlink:href="#SVGID_1_"  style="overflow:visible;fill-rule:evenodd;clip-rule:evenodd;fill:url(#SVGID_2_);"/>
			<clipPath id="SVGID_3_">
				<use xlink:href="#SVGID_1_"  style="overflow:visible;"/>
			</clipPath>
			<linearGradient id="SVGID_4_" gradientUnits="userSpaceOnUse" x1="6.5" y1="24" x2="24.1932" y2="24">
				<stop  offset="0" style="stop-color:#F1692A"/>
				<stop  offset="1" style="stop-color:#F7941D"/>
			</linearGradient>
			<rect x="6.5" y="14.7" class="st1" width="17.7" height="18.6"/>
		</g>
	</g>
	<g>
		<path class="st2" d="M29.2,18.8c0.5,0,0.8,0.4,0.8,0.8c0,0.4-0.4,0.8-0.8,0.8c-0.5,0-0.8-0.4-0.8-0.8
			C28.4,19.2,28.8,18.8,29.2,18.8 M28.6,21.6h1.2V29h-1.2V21.6z"/>
		<path class="st2" d="M45.3,21.4c-1.1,0-2,0.4-2.8,1.1v-0.9h-1.2v3.7V29h1.2v-3.7c0-1.5,1.2-2.7,2.8-2.7V21.4z"/>
		<path class="st2" d="M57,21.6h-1.2v3.7V29H57v-3.7c0-1.5,1.2-2.7,2.8-2.7c1.5,0,2.8,1.2,2.8,2.7V29h1.2v-3.7
			c0-1.5,1.2-2.7,2.8-2.7s2.8,1.2,2.8,2.7V29h1.2v-3.7c0-2.2-1.8-3.9-4-3.9c-1.4,0-2.7,0.7-3.4,1.8c-0.7-1.1-1.9-1.8-3.4-1.8
			c-1.1,0-2,0.4-2.8,1.1V21.6z"/>
		<path class="st2" d="M38.3,18.8v3.7c-0.7-0.7-1.7-1.1-2.8-1.1c-2.2,0-4,1.7-4,3.9c0,2.2,1.8,3.9,4,3.9c1.1,0,2-0.4,2.8-1.1V29h1.2
			v-3.7v-6.5H38.3z M35.5,28c-1.5,0-2.8-1.2-2.8-2.7c0-1.5,1.2-2.7,2.8-2.7c1.5,0,2.8,1.2,2.8,2.7C38.3,26.8,37,28,35.5,28z"/>
		<path class="st2" d="M52.7,21.6v0.9C52,21.8,51,21.4,50,21.4c-2.2,0-4,1.7-4,3.9c0,2.2,1.8,3.9,4,3.9c1.1,0,2-0.4,2.8-1.1V29h1.2
			v-3.7v-3.7H52.7z M52.7,25.3c0,1.5-1.2,2.7-2.8,2.7c-1.5,0-2.8-1.2-2.8-2.7c0-1.5,1.2-2.7,2.8-2.7c1.4,0,2.6,1.1,2.7,2.4
			C52.7,25.1,52.7,25.2,52.7,25.3L52.7,25.3L52.7,25.3z"/>
	</g>
</g>
</svg>
