<svg id="Layer_1" data-name="Layer 1" xmlns="http://www.w3.org/2000/svg" viewBox="0 0 76.91 48"><defs><style>.cls-1{fill:#fff;}.cls-2{fill:#0099df;}.cls-3{fill:#6c6bbd;}.cls-4{fill:#eb001b;}.cls-5{fill:#231f20;}</style></defs><rect class="cls-1" width="76.91" height="48" rx="10.16"/><path class="cls-2" d="M62,29.19v-.57h-.15l-.17.39-.17-.39H61.4v.57h.11v-.43l.16.37h.11l.16-.37v.43Zm-.94,0v-.47h.19v-.1H60.8v.1H61v.47Z"/><path class="cls-3" d="M45.14,31.64H32.28V8.53H45.14Z"/><path class="cls-4" d="M33.11,20.08A14.68,14.68,0,0,1,38.72,8.52a14.7,14.7,0,1,0,0,23.12,14.67,14.67,0,0,1-5.61-11.56"/><path class="cls-2" d="M62.49,20.08A14.7,14.7,0,0,1,38.71,31.64a14.72,14.72,0,0,0,0-23.12A14.7,14.7,0,0,1,62.49,20.08"/><path class="cls-5" d="M49.48,38.17a1.71,1.71,0,0,1,.61.11l-.27.8a1.25,1.25,0,0,0-.53-.1c-.55,0-.83.36-.83,1v2.19h-.85v-3.9h.84v.47a1.16,1.16,0,0,1,1-.57M46.34,39H45v1.77c0,.39.14.65.57.65a1.52,1.52,0,0,0,.75-.22l.24.73a2.05,2.05,0,0,1-1.06.3c-1,0-1.35-.54-1.35-1.45V39h-.8v-.77h.8V37.08H45v1.19h1.39Zm-10.87.84a1,1,0,0,1,1-1,1,1,0,0,1,1,1Zm2.91.34a1.87,1.87,0,0,0-1.85-2,1.91,1.91,0,0,0-2,2,1.93,1.93,0,0,0,2,2.05,2.36,2.36,0,0,0,1.6-.55l-.41-.63a1.9,1.9,0,0,1-1.14.41,1.08,1.08,0,0,1-1.16-1h2.89c0-.11,0-.22,0-.33m3.73-1a2.57,2.57,0,0,0-1.21-.33c-.47,0-.75.17-.75.46s.3.33.66.38l.4.06c.85.12,1.37.48,1.37,1.16s-.66,1.28-1.78,1.28a2.75,2.75,0,0,1-1.69-.51l.4-.66a2.07,2.07,0,0,0,1.3.41c.58,0,.89-.17.89-.47s-.22-.35-.69-.41l-.4-.06c-.87-.12-1.35-.51-1.35-1.15s.64-1.25,1.63-1.25a2.91,2.91,0,0,1,1.59.41ZM52.58,39a1.28,1.28,0,0,0-.48.09,1.2,1.2,0,0,0-.65.65,1.44,1.44,0,0,0-.09.51,1.36,1.36,0,0,0,.09.51,1.11,1.11,0,0,0,.26.4,1.16,1.16,0,0,0,.39.26,1.28,1.28,0,0,0,.48.09,1.3,1.3,0,0,0,.49-.09,1.16,1.16,0,0,0,.39-.26,1.11,1.11,0,0,0,.26-.4,1.19,1.19,0,0,0,.1-.51,1.25,1.25,0,0,0-.1-.51,1.2,1.2,0,0,0-.65-.65,1.3,1.3,0,0,0-.49-.09m0-.81a2.17,2.17,0,0,1,1.52.59,2.26,2.26,0,0,1,.44.65,2.22,2.22,0,0,1,.16.82,2.18,2.18,0,0,1-.16.82,2.13,2.13,0,0,1-.44.65,2.16,2.16,0,0,1-.67.44,2.46,2.46,0,0,1-1.69,0,2,2,0,0,1-.66-.44,1.83,1.83,0,0,1-.44-.65,2,2,0,0,1-.16-.82,2,2,0,0,1,.16-.82,1.92,1.92,0,0,1,.44-.65,2,2,0,0,1,.66-.43,2.13,2.13,0,0,1,.84-.16m-22.07,2a1.18,1.18,0,1,1,1.19,1.25,1.17,1.17,0,0,1-1.19-1.25m3.16,0V38.27h-.85v.47a1.47,1.47,0,0,0-1.23-.57,2.05,2.05,0,0,0,0,4.1,1.47,1.47,0,0,0,1.23-.57v.47h.85Zm-4.78,2V39.72a1.46,1.46,0,0,0-1.54-1.55,1.51,1.51,0,0,0-1.37.69,1.43,1.43,0,0,0-1.29-.69,1.28,1.28,0,0,0-1.14.58v-.48H22.7v3.9h.85V40a.92.92,0,0,1,1-1c.56,0,.85.37.85,1v2.17h.86V40a.92.92,0,0,1,1-1c.58,0,.86.37.86,1v2.17Z"/><path class="cls-5" d="M55.61,41.88V42h.14l0,0a.05.05,0,0,0,0,0h-.14Zm.09-.07a.18.18,0,0,1,.11,0,.13.13,0,0,1,0,.09.09.09,0,0,1,0,.07.19.19,0,0,1-.09,0l.12.13h-.09L55.65,42h0v.13h-.07v-.36Zm0,.48a.25.25,0,0,0,.12,0l.09-.06a.36.36,0,0,0,.07-.1.37.37,0,0,0,0-.24l-.07-.09-.09-.07-.12,0-.12,0-.1.07a.47.47,0,0,0-.06.09.37.37,0,0,0,0,.24.33.33,0,0,0,.06.1l.1.06a.25.25,0,0,0,.12,0m0-.69a.28.28,0,0,1,.15,0,.26.26,0,0,1,.13.08.36.36,0,0,1,.08.12.4.4,0,0,1,0,.15.33.33,0,0,1,0,.15.33.33,0,0,1-.21.21l-.15,0a.41.41,0,0,1-.16,0,.36.36,0,0,1-.12-.08.38.38,0,0,1-.09-.13.33.33,0,0,1,0-.15.4.4,0,0,1,0-.15.27.27,0,0,1,.09-.12.2.2,0,0,1,.12-.08.29.29,0,0,1,.16,0"/></svg>