<svg id="Layer_1" data-name="Layer 1" xmlns="http://www.w3.org/2000/svg" viewBox="0 0 76.91 48"><defs><style>.cls-1{fill:#fff;}.cls-2{fill:#231f20;}.cls-3{fill:#f79410;}.cls-4{fill:#ff5f00;}.cls-5{fill:#eb001b;}.cls-6{fill:#f79e1b;}</style></defs><rect class="cls-1" width="76.91" height="48" rx="10.16"/><path class="cls-2" d="M61,41.88V42h.14l0,0a.05.05,0,0,0,0,0H61Zm.09-.07a.18.18,0,0,1,.11,0,.12.12,0,0,1,0,.09.09.09,0,0,1,0,.07.15.15,0,0,1-.08,0l.12.13h-.09L61.05,42h0v.13h-.08v-.36Zm0,.48a.2.2,0,0,0,.11,0l.1-.06a.21.21,0,0,0,.06-.1.25.25,0,0,0,0-.24.24.24,0,0,0-.06-.09l-.1-.07-.11,0-.12,0-.1.07a.24.24,0,0,0-.06.09.25.25,0,0,0,0,.24.21.21,0,0,0,.06.1l.1.06a.22.22,0,0,0,.12,0m0-.69a.28.28,0,0,1,.15,0,.26.26,0,0,1,.13.08.36.36,0,0,1,.08.12.4.4,0,0,1,0,.15.33.33,0,0,1,0,.15.33.33,0,0,1-.21.21l-.15,0a.41.41,0,0,1-.16,0,.33.33,0,0,1-.21-.21.33.33,0,0,1,0-.15.4.4,0,0,1,0-.15.36.36,0,0,1,.08-.12.26.26,0,0,1,.13-.08.29.29,0,0,1,.16,0M24.66,40.22a1.18,1.18,0,1,1,1.19,1.25,1.17,1.17,0,0,1-1.19-1.25m3.16,0V38.27H27v.47a1.48,1.48,0,0,0-1.23-.57,2.05,2.05,0,0,0,0,4.1A1.48,1.48,0,0,0,27,41.7v.47h.85Zm28.68,0a1.18,1.18,0,1,1,1.18,1.25,1.17,1.17,0,0,1-1.18-1.25m3.16,0V36.7h-.85v2a1.48,1.48,0,0,0-1.23-.57,2.05,2.05,0,0,0,0,4.1,1.48,1.48,0,0,0,1.23-.57v.47h.85Zm-21.3-1.29a1,1,0,0,1,1,1h-2a1,1,0,0,1,1-1m0-.76a1.9,1.9,0,0,0-1.94,2,1.92,1.92,0,0,0,2,2.05,2.36,2.36,0,0,0,1.6-.55l-.42-.63a1.85,1.85,0,0,1-1.13.41,1.08,1.08,0,0,1-1.17-1h2.9c0-.1,0-.21,0-.32a1.87,1.87,0,0,0-1.86-2m10.25,2a1.18,1.18,0,1,1,1.18,1.25,1.17,1.17,0,0,1-1.18-1.25m3.16,0V38.27h-.85v.47a1.48,1.48,0,0,0-1.23-.57,2.05,2.05,0,0,0,0,4.1,1.48,1.48,0,0,0,1.23-.57v.47h.85Zm-8,0a2,2,0,0,0,2.08,2.05,2,2,0,0,0,1.4-.47l-.4-.68a1.73,1.73,0,0,1-1,.35,1.25,1.25,0,0,1,0-2.5,1.73,1.73,0,0,1,1,.35l.4-.69a2,2,0,0,0-1.4-.46,2,2,0,0,0-2.08,2m10.94-2a1.16,1.16,0,0,0-1,.57v-.47H52.9v3.9h.85V40c0-.64.28-1,.83-1a1.44,1.44,0,0,1,.53.09l.26-.8a1.84,1.84,0,0,0-.6-.1M32,38.58a2.91,2.91,0,0,0-1.59-.41c-1,0-1.63.47-1.63,1.25,0,.63.48,1,1.35,1.15l.4.06c.46.06.68.18.68.41s-.31.47-.89.47a2.06,2.06,0,0,1-1.29-.41l-.4.66a2.82,2.82,0,0,0,1.69.51c1.12,0,1.78-.53,1.78-1.28s-.52-1-1.37-1.16l-.4-.06c-.36-.05-.66-.12-.66-.38s.28-.46.74-.46a2.62,2.62,0,0,1,1.22.33ZM43,38.17a1.16,1.16,0,0,0-1,.57v-.47H41.1v3.9H42V40c0-.64.28-1,.83-1a1.44,1.44,0,0,1,.53.09l.26-.8a1.84,1.84,0,0,0-.6-.1m-7.24.1H34.34V37.08h-.86v1.19h-.79V39h.79v1.78c0,.91.35,1.45,1.36,1.45A2.08,2.08,0,0,0,35.9,42l-.25-.73a1.52,1.52,0,0,1-.75.22c-.42,0-.56-.26-.56-.65V39h1.39ZM23,42.17V39.72a1.46,1.46,0,0,0-1.54-1.55,1.51,1.51,0,0,0-1.37.69,1.43,1.43,0,0,0-1.29-.69,1.27,1.27,0,0,0-1.14.58v-.48h-.85v3.9h.85V40a.92.92,0,0,1,1-1c.56,0,.85.37.85,1v2.17h.86V40a.92.92,0,0,1,.95-1c.58,0,.86.37.86,1v2.17Z"/><path class="cls-3" d="M61.53,29.19v-.57h-.14l-.18.39L61,28.62h-.15v.57H61v-.43l.16.37h.11l.16-.37v.43Zm-.94,0v-.47h.19v-.1H60.3v.1h.19v.47Z"/><path class="cls-4" d="M44.64,31.64H31.77V8.53H44.64Z"/><path class="cls-5" d="M32.6,20.08A14.68,14.68,0,0,1,38.21,8.52a14.7,14.7,0,1,0,0,23.12A14.67,14.67,0,0,1,32.6,20.08"/><path class="cls-6" d="M62,20.08A14.7,14.7,0,0,1,38.2,31.64a14.72,14.72,0,0,0,0-23.12A14.7,14.7,0,0,1,62,20.08"/></svg>