<svg id="Layer_1" data-name="Layer 1" xmlns="http://www.w3.org/2000/svg" viewBox="0 0 76.91 48"><defs><style>.cls-1{fill:#fff;}.cls-2{fill:#00579f;}.cls-3{fill:#faa61a;}</style></defs><rect class="cls-1" width="76.91" height="48" rx="10.16"/><g id="g4158"><polygon id="polygon9" class="cls-2" points="34.56 31.97 30.38 31.97 32.99 15.81 37.17 15.81 34.56 31.97"/><path id="path11" class="cls-2" d="M49.7,16.2A10.44,10.44,0,0,0,46,15.52c-4.13,0-7,2.2-7.05,5.34,0,2.32,2.08,3.61,3.66,4.39s2.16,1.3,2.16,2c0,1.08-1.3,1.58-2.51,1.58A8.37,8.37,0,0,1,38.3,28l-.55-.26-.58,3.63a12.89,12.89,0,0,0,4.66.86c4.38,0,7.24-2.17,7.27-5.52,0-1.84-1.1-3.25-3.51-4.4-1.46-.74-2.35-1.24-2.35-2s.75-1.39,2.4-1.39a7.16,7.16,0,0,1,3.12.62l.37.17.57-3.49Z"/><path id="path13" class="cls-2" d="M55.26,26.24l1.66-4.52s.35-.94.55-1.55l.3,1.4s.79,3.87,1,4.67Zm5.15-10.43H57.18A2.06,2.06,0,0,0,55,17.15L48.79,32h4.39s.72-2,.87-2.43h5.37c.12.57.5,2.43.5,2.43h3.86L60.41,15.81Z"/><path id="path15" class="cls-2" d="M26.89,15.81l-4.09,11-.45-2.24a12.36,12.36,0,0,0-5.78-6.77L20.32,32h4.42l6.57-16.14Z"/><path id="path17" class="cls-3" d="M19,15.81H12.27l-.06.32c5.24,1.35,8.71,4.58,10.14,8.46l-1.46-7.42A1.72,1.72,0,0,0,19,15.81Z"/></g></svg>